<svg width="3126" height="1201" xmlns="http://www.w3.org/2000/svg" xmlns:xlink="http://www.w3.org/1999/xlink" xml:space="preserve" overflow="hidden"><defs><clipPath id="clip0"><rect x="467" y="737" width="3126" height="1201"/></clipPath></defs><g clip-path="url(#clip0)" transform="translate(-467 -737)"><path d="M994 979.5C994 933.936 1030.94 897 1076.5 897 1122.06 897 1159 933.936 1159 979.5 1159 1025.06 1122.06 1062 1076.5 1062 1030.94 1062 994 1025.06 994 979.5Z" fill="#000000" fill-rule="evenodd" fill-opacity="1"/><path d="M1743 979.5C1743 933.936 1779.94 897 1825.5 897 1871.06 897 1908 933.936 1908 979.5 1908 1025.06 1871.06 1062 1825.5 1062 1779.94 1062 1743 1025.06 1743 979.5Z" fill="#000000" fill-rule="evenodd" fill-opacity="1"/><path d="M2493 979.5C2493 933.936 2529.94 897 2575.5 897 2621.06 897 2658 933.936 2658 979.5 2658 1025.06 2621.06 1062 2575.5 1062 2529.94 1062 2493 1025.06 2493 979.5Z" fill="#000000" fill-rule="evenodd" fill-opacity="1"/><path d="M3243 979.5C3243 933.936 3279.94 897 3325.5 897 3371.06 897 3408 933.936 3408 979.5 3408 1025.06 3371.06 1062 3325.5 1062 3279.94 1062 3243 1025.06 3243 979.5Z" fill="#000000" fill-rule="evenodd" fill-opacity="1"/><path d="M1170.5 1363.5 1241.46 1670.2" stroke="#000000" stroke-width="9.16667" stroke-linecap="butt" stroke-linejoin="miter" stroke-miterlimit="8" stroke-opacity="1" fill="none" fill-rule="evenodd"/><path d="M1076.5 980.5 1295.42 1196.01" stroke="#000000" stroke-width="9.16667" stroke-linecap="butt" stroke-linejoin="miter" stroke-miterlimit="8" stroke-opacity="1" fill="none" fill-rule="evenodd"/><path d="M0 0 190.469 220.292" stroke="#000000" stroke-width="9.16667" stroke-linecap="butt" stroke-linejoin="miter" stroke-miterlimit="8" stroke-opacity="1" fill="none" fill-rule="evenodd" transform="matrix(-1 0 0 1 1822.97 975.5)"/><path d="M1159 1660.5C1159 1614.94 1195.94 1578 1241.5 1578 1287.06 1578 1324 1614.94 1324 1660.5 1324 1706.06 1287.06 1743 1241.5 1743 1195.94 1743 1159 1706.06 1159 1660.5Z" fill="#000000" fill-rule="evenodd" fill-opacity="1"/><path d="M1670 1660.5C1670 1614.94 1706.94 1578 1752.5 1578 1798.06 1578 1835 1614.94 1835 1660.5 1835 1706.06 1798.06 1743 1752.5 1743 1706.94 1743 1670 1706.06 1670 1660.5Z" fill="#000000" fill-rule="evenodd" fill-opacity="1"/><path d="M2769 1655.5C2769 1609.94 2805.94 1573 2851.5 1573 2897.06 1573 2934 1609.94 2934 1655.5 2934 1701.06 2897.06 1738 2851.5 1738 2805.94 1738 2769 1701.06 2769 1655.5Z" fill="#000000" fill-rule="evenodd" fill-opacity="1"/><path d="M0 0 20.6734 232.714" stroke="#000000" stroke-width="9.16667" stroke-linecap="butt" stroke-linejoin="miter" stroke-miterlimit="8" stroke-opacity="1" fill="none" fill-rule="evenodd" transform="matrix(-1 0 0 1 1822.17 980.5)"/><path d="M1826.5 978.5 2140.1 1213.3" stroke="#000000" stroke-width="9.16667" stroke-linecap="butt" stroke-linejoin="miter" stroke-miterlimit="8" stroke-opacity="1" fill="none" fill-rule="evenodd"/><path d="M0 0 158.527 262.432" stroke="#000000" stroke-width="9.16667" stroke-linecap="butt" stroke-linejoin="miter" stroke-miterlimit="8" stroke-opacity="1" fill="none" fill-rule="evenodd" transform="matrix(-1 0 0 1 3318.03 975.5)"/><path d="M2714.5 1363.5 2846.4 1670.2" stroke="#000000" stroke-width="9.16667" stroke-linecap="butt" stroke-linejoin="miter" stroke-miterlimit="8" stroke-opacity="1" fill="none" fill-rule="evenodd"/><path d="M1079.5 979.5 1134.25 1238.02" stroke="#000000" stroke-width="9.16667" stroke-linecap="butt" stroke-linejoin="miter" stroke-miterlimit="8" stroke-opacity="1" fill="none" fill-rule="evenodd"/><path d="M1449.5 1363.5 1755.59 1674.98" stroke="#000000" stroke-width="9.16667" stroke-linecap="butt" stroke-linejoin="miter" stroke-miterlimit="8" stroke-opacity="1" fill="none" fill-rule="evenodd"/><path d="M0 0 264.418 300.727" stroke="#000000" stroke-width="9.16667" stroke-linecap="butt" stroke-linejoin="miter" stroke-miterlimit="8" stroke-opacity="1" fill="none" fill-rule="evenodd" transform="matrix(-1 0 0 1 1503.92 1363.5)"/><path d="M0 0 25.7352 292.351" stroke="#000000" stroke-width="9.16667" stroke-linecap="butt" stroke-linejoin="miter" stroke-miterlimit="8" stroke-opacity="1" fill="none" fill-rule="evenodd" transform="matrix(-1 0 0 1 1781.24 1363.5)"/><path d="M2391.5 1363.5 2852.52 1655.85" stroke="#000000" stroke-width="9.16667" stroke-linecap="butt" stroke-linejoin="miter" stroke-miterlimit="8" stroke-opacity="1" fill="none" fill-rule="evenodd"/><path d="M2574.5 978.5 2662.45 1213.01" stroke="#000000" stroke-width="9.16667" stroke-linecap="butt" stroke-linejoin="miter" stroke-miterlimit="8" stroke-opacity="1" fill="none" fill-rule="evenodd"/><path d="M0 0 166.788 245.31" stroke="#000000" stroke-width="9.16667" stroke-linecap="butt" stroke-linejoin="miter" stroke-miterlimit="8" stroke-opacity="1" fill="none" fill-rule="evenodd" transform="matrix(-1 0 0 1 3019.29 1413.5)"/><text fill="#000000" fill-opacity="1" font-family="Arial,Arial_MSFontService,sans-serif" font-style="normal" font-variant="normal" font-weight="400" font-stretch="normal" font-size="83" text-anchor="start" direction="ltr" writing-mode="lr-tb" unicode-bidi="normal" text-decoration="none" transform="matrix(1 0 0 1 530.012 994)">Nodes</text><text fill="#000000" fill-opacity="1" font-family="Arial,Arial_MSFontService,sans-serif" font-style="normal" font-variant="normal" font-weight="400" font-stretch="normal" font-size="83" text-anchor="start" direction="ltr" writing-mode="lr-tb" unicode-bidi="normal" text-decoration="none" transform="matrix(1 0 0 1 519.715 1685)">Hyperedges</text><text fill="#000000" fill-opacity="1" font-family="Arial,Arial_MSFontService,sans-serif" font-style="normal" font-variant="normal" font-weight="400" font-stretch="normal" font-size="83" text-anchor="start" direction="ltr" writing-mode="lr-tb" unicode-bidi="normal" text-decoration="none" transform="matrix(1 0 0 1 860.787 847)">Node UID 1</text><text fill="#000000" fill-opacity="1" font-family="Arial,Arial_MSFontService,sans-serif" font-style="normal" font-variant="normal" font-weight="400" font-stretch="normal" font-size="83" text-anchor="start" direction="ltr" writing-mode="lr-tb" unicode-bidi="normal" text-decoration="none" transform="matrix(1 0 0 1 3108.19 847)">Node UID 4</text><text fill="#000000" fill-opacity="1" font-family="Arial,Arial_MSFontService,sans-serif" font-style="normal" font-variant="normal" font-weight="400" font-stretch="normal" font-size="83" text-anchor="start" direction="ltr" writing-mode="lr-tb" unicode-bidi="normal" text-decoration="none" transform="matrix(1 0 0 1 2359.06 849)">Node UID 3</text><text fill="#000000" fill-opacity="1" font-family="Arial,Arial_MSFontService,sans-serif" font-style="normal" font-variant="normal" font-weight="400" font-stretch="normal" font-size="83" text-anchor="start" direction="ltr" writing-mode="lr-tb" unicode-bidi="normal" text-decoration="none" transform="matrix(1 0 0 1 1609.92 849)">Node UID 2</text><text fill="#000000" fill-opacity="1" font-family="Arial,Arial_MSFontService,sans-serif" font-style="normal" font-variant="normal" font-weight="400" font-stretch="normal" font-size="83" text-anchor="start" direction="ltr" writing-mode="lr-tb" unicode-bidi="normal" text-decoration="none" transform="matrix(1 0 0 1 1028.08 1866)">Edge UID 1</text><text fill="#000000" fill-opacity="1" font-family="Arial,Arial_MSFontService,sans-serif" font-style="normal" font-variant="normal" font-weight="400" font-stretch="normal" font-size="83" text-anchor="start" direction="ltr" writing-mode="lr-tb" unicode-bidi="normal" text-decoration="none" transform="matrix(1 0 0 1 1539.39 1866)">Edge UID 2</text><text fill="#000000" fill-opacity="1" font-family="Arial,Arial_MSFontService,sans-serif" font-style="normal" font-variant="normal" font-weight="400" font-stretch="normal" font-size="83" text-anchor="start" direction="ltr" writing-mode="lr-tb" unicode-bidi="normal" text-decoration="none" transform="matrix(1 0 0 1 2638.74 1866)">Edge UID 3</text></g></svg>